<svg width="1736" height="400" viewBox="0 0 1736 400" fill="none" xmlns="http://www.w3.org/2000/svg">
<path d="M25.9647 295.849C20.5307 295.849 16.1031 294.239 12.6817 291.019C9.46156 287.597 7.8515 283.17 7.8515 277.736V100.528C7.8515 95.0941 9.46156 90.767 12.6817 87.5469C16.1031 84.1255 20.5307 82.4148 25.9647 82.4148H105.361C117.436 82.4148 128.606 83.6224 138.87 86.0375C149.135 88.2513 157.99 92.3771 165.436 98.4148C173.084 104.453 179.021 112.704 183.248 123.17C187.474 133.635 189.587 147.019 189.587 163.321C189.587 179.421 187.474 192.704 183.248 203.17C179.021 213.635 173.084 221.887 165.436 227.924C157.99 233.962 149.135 238.188 138.87 240.604C128.606 243.019 117.436 244.226 105.361 244.226H87.2477C84.4301 244.226 82.2163 245.031 80.6062 246.641C78.9962 248.251 78.1911 250.465 78.1911 253.283V277.736C78.1911 283.17 76.4804 287.597 73.059 291.019C69.8389 294.239 65.5119 295.849 60.0779 295.849H25.9647ZM78.1911 177.811C78.1911 180.629 78.9962 182.843 80.6062 184.453C82.2163 186.063 84.4301 186.868 87.2477 186.868H92.3798C100.833 186.868 107.374 185.258 112.002 182.037C116.833 178.817 119.248 172.578 119.248 163.321C119.248 153.861 116.833 147.622 112.002 144.604C107.374 141.383 100.833 139.773 92.3798 139.773H87.2477C84.4301 139.773 82.2163 140.578 80.6062 142.188C78.9962 143.798 78.1911 146.012 78.1911 148.83V177.811ZM203.304 100.528C203.304 95.0941 204.914 90.767 208.135 87.5469C211.556 84.1255 215.984 82.4148 221.418 82.4148H255.531C260.965 82.4148 265.292 84.1255 268.512 87.5469C271.933 90.767 273.644 95.0941 273.644 100.528V212.83C273.644 221.082 275.254 227.622 278.474 232.453C281.694 237.082 287.933 239.396 297.191 239.396C306.449 239.396 312.688 237.082 315.908 232.453C319.128 227.622 320.738 221.082 320.738 212.83V100.528C320.738 95.0941 322.348 90.767 325.568 87.5469C328.99 84.1255 333.418 82.4148 338.852 82.4148H372.965C378.399 82.4148 382.726 84.1255 385.946 87.5469C389.367 90.767 391.078 95.0941 391.078 100.528V212.83C391.078 225.71 389.367 237.383 385.946 247.849C382.524 258.113 377.09 266.868 369.644 274.113C362.197 281.358 352.436 286.993 340.361 291.019C328.487 294.843 314.097 296.754 297.191 296.754C280.084 296.754 265.594 294.843 253.719 291.019C241.845 286.993 232.185 281.358 224.738 274.113C217.292 266.868 211.858 258.113 208.436 247.849C205.015 237.383 203.304 225.71 203.304 212.83V100.528ZM471.644 293.736C466.21 293.736 461.782 292.126 458.361 288.905C455.141 285.484 453.531 281.056 453.531 275.622V157.887C453.531 152.453 451.82 148.126 448.399 144.905C445.179 141.484 440.851 139.773 435.418 139.773H421.531C416.097 139.773 411.669 138.163 408.248 134.943C405.028 131.522 403.418 127.094 403.418 121.66V100.528C403.418 95.0941 405.028 90.767 408.248 87.5469C411.669 84.1255 416.097 82.4148 421.531 82.4148H555.87C561.304 82.4148 565.631 84.1255 568.851 87.5469C572.273 90.767 573.984 95.0941 573.984 100.528V121.66C573.984 127.094 572.273 131.522 568.851 134.943C565.631 138.163 561.304 139.773 555.87 139.773H541.984C536.55 139.773 532.122 141.484 528.701 144.905C525.48 148.126 523.87 152.453 523.87 157.887V275.622C523.87 281.056 522.16 285.484 518.738 288.905C515.518 292.126 511.191 293.736 505.757 293.736H471.644ZM571.224 293.736C563.979 293.736 559.35 292.528 557.337 290.113C555.526 287.698 555.425 282.968 557.035 275.924L595.073 100.226C596.281 94.7922 598.897 90.4652 602.922 87.245C606.947 84.0249 611.677 82.4148 617.111 82.4148H697.413C702.847 82.4148 707.576 84.0249 711.602 87.245C715.627 90.4652 718.243 94.7922 719.451 100.226L757.488 275.924C759.098 282.968 758.897 287.698 756.885 290.113C755.073 292.528 750.545 293.736 743.3 293.736H705.564C699.929 293.736 695.803 292.729 693.186 290.717C690.57 288.704 688.859 284.981 688.054 279.547C686.847 273.71 685.035 269.887 682.62 268.075C680.205 266.264 676.079 265.358 670.243 265.358H644.281C638.444 265.358 634.318 266.264 631.903 268.075C629.69 269.887 627.979 273.71 626.771 279.547C625.363 284.981 623.652 288.704 621.639 290.717C619.627 292.729 615.4 293.736 608.96 293.736H571.224ZM658.469 208C667.929 208 671.551 203.069 669.337 193.207L661.186 155.773C660.583 152.956 659.274 151.547 657.262 151.547C655.249 151.547 653.941 152.956 653.337 155.773L645.488 193.207C643.274 203.069 646.796 208 656.054 208H658.469Z" fill="#FF2B00"/>
<path d="M1000 100.528C1000 95.0941 1001.61 90.767 1004.83 87.5469C1008.25 84.1255 1012.68 82.4148 1018.11 82.4148H1099.02C1130.82 82.4148 1154.57 90.767 1170.27 107.471C1185.96 124.176 1193.81 151.044 1193.81 188.075C1193.81 225.107 1185.86 251.975 1169.96 268.679C1154.06 285.383 1129.61 293.736 1096.6 293.736H1018.11C1012.68 293.736 1008.25 292.126 1004.83 288.905C1001.61 285.484 1000 281.056 1000 275.622V100.528ZM1070.34 154.868V221.283C1070.34 227.119 1072.05 231.648 1075.47 234.868C1079.1 237.887 1083.72 239.396 1089.36 239.396C1096 239.396 1101.33 237.685 1105.36 234.264C1109.38 230.843 1112.5 226.515 1114.72 221.283C1117.13 216.05 1118.64 210.415 1119.25 204.377C1120.05 198.339 1120.45 192.805 1120.45 187.773C1120.45 182.742 1120.05 177.308 1119.25 171.471C1118.44 165.434 1116.93 159.899 1114.72 154.868C1112.5 149.635 1109.38 145.308 1105.36 141.887C1101.33 138.465 1096 136.754 1089.36 136.754C1083.72 136.754 1079.1 138.365 1075.47 141.585C1072.05 144.604 1070.34 149.031 1070.34 154.868ZM1299.67 296.754C1266.67 296.754 1242.11 287.899 1226.01 270.188C1210.11 252.478 1202.16 225.107 1202.16 188.075C1202.16 151.044 1210.11 123.673 1226.01 105.962C1242.11 88.2513 1266.67 79.396 1299.67 79.396C1332.88 79.396 1357.43 88.2513 1373.33 105.962C1389.43 123.471 1397.48 150.843 1397.48 188.075C1397.48 225.308 1389.43 252.78 1373.33 270.49C1357.43 288 1332.88 296.754 1299.67 296.754ZM1299.97 239.396C1304.6 239.396 1308.43 238.692 1311.45 237.283C1314.47 235.874 1316.88 233.258 1318.69 229.434C1320.5 225.61 1321.71 220.377 1322.31 213.736C1323.12 206.893 1323.52 198.138 1323.52 187.471C1323.52 177.409 1323.12 169.157 1322.31 162.717C1321.71 156.075 1320.5 150.843 1318.69 147.019C1316.88 143.195 1314.47 140.578 1311.45 139.17C1308.43 137.559 1304.5 136.754 1299.67 136.754C1295.04 136.754 1291.22 137.459 1288.2 138.868C1285.18 140.276 1282.77 142.893 1280.96 146.717C1279.14 150.541 1277.84 155.773 1277.03 162.415C1276.43 169.056 1276.13 177.61 1276.13 188.075C1276.13 198.541 1276.43 207.094 1277.03 213.736C1277.84 220.377 1279.14 225.61 1280.96 229.434C1282.77 233.258 1285.18 235.874 1288.2 237.283C1291.42 238.692 1295.35 239.396 1299.97 239.396ZM1570.71 275.019C1570.71 281.861 1569.3 286.893 1566.48 290.113C1563.66 293.333 1559.04 295.144 1552.6 295.547C1548.77 295.949 1544.85 296.151 1540.82 296.151C1537 296.352 1533.38 296.453 1529.95 296.453C1526.73 296.654 1523.92 296.754 1521.5 296.754C1519.09 296.754 1517.48 296.754 1516.67 296.754C1495.34 296.754 1477.53 294.843 1463.24 291.019C1449.15 286.993 1437.78 280.754 1429.12 272.302C1420.67 263.648 1414.63 252.478 1411.01 238.792C1407.59 224.905 1405.88 208 1405.88 188.075C1405.88 168.151 1407.59 151.346 1411.01 137.66C1414.63 123.773 1420.67 112.604 1429.12 104.151C1437.78 95.4966 1449.15 89.2576 1463.24 85.4337C1477.53 81.4085 1495.34 79.396 1516.67 79.396C1517.48 79.396 1519.09 79.396 1521.5 79.396C1523.92 79.396 1526.73 79.4966 1529.95 79.6979C1533.38 79.6979 1537 79.7985 1540.82 79.9998C1544.85 79.9998 1548.77 80.201 1552.6 80.6035C1559.04 81.006 1563.66 82.8174 1566.48 86.0375C1569.3 89.2576 1570.71 94.2891 1570.71 101.132V122.264C1570.71 128.704 1569.3 133.132 1566.48 135.547C1563.87 137.761 1559.24 138.666 1552.6 138.264C1545.75 137.66 1539.01 137.258 1532.37 137.056C1525.73 136.855 1521 136.754 1518.18 136.754C1511.14 136.754 1505.2 137.358 1500.37 138.566C1495.54 139.572 1491.61 141.887 1488.6 145.509C1485.58 149.132 1483.36 154.365 1481.95 161.207C1480.54 167.849 1479.84 176.805 1479.84 188.075C1479.84 199.144 1480.54 208.1 1481.95 214.943C1483.36 221.585 1485.58 226.717 1488.6 230.339C1491.61 233.962 1495.54 236.377 1500.37 237.585C1505.2 238.792 1511.14 239.396 1518.18 239.396C1521 239.396 1525.73 239.295 1532.37 239.094C1539.01 238.893 1545.75 238.49 1552.6 237.887C1559.24 237.484 1563.87 238.49 1566.48 240.905C1569.3 243.119 1570.71 247.446 1570.71 253.887V275.019ZM1584.62 100.528C1584.62 95.0941 1586.23 90.767 1589.45 87.5469C1592.87 84.1255 1597.3 82.4148 1602.73 82.4148H1711.41C1716.85 82.4148 1721.17 84.1255 1724.39 87.5469C1727.81 90.767 1729.52 95.0941 1729.52 100.528V121.66C1729.52 127.094 1727.81 131.522 1724.39 134.943C1721.17 138.163 1716.85 139.773 1711.41 139.773H1666.13C1662.71 139.773 1659.99 140.78 1657.98 142.792C1655.96 144.604 1654.96 147.22 1654.96 150.641V151.547C1654.96 154.968 1655.96 157.685 1657.98 159.698C1659.99 161.509 1662.71 162.415 1666.13 162.415H1694.2C1699.64 162.415 1703.96 164.126 1707.18 167.547C1710.61 170.767 1712.32 175.094 1712.32 180.528V195.622C1712.32 201.056 1710.61 205.484 1707.18 208.905C1703.96 212.126 1699.64 213.736 1694.2 213.736H1666.13C1662.71 213.736 1659.99 214.742 1657.98 216.754C1655.96 218.566 1654.96 221.182 1654.96 224.604V225.509C1654.96 228.931 1655.96 231.648 1657.98 233.66C1659.99 235.471 1662.71 236.377 1666.13 236.377H1711.41C1716.85 236.377 1721.17 238.088 1724.39 241.509C1727.81 244.729 1729.52 249.056 1729.52 254.49V275.622C1729.52 281.056 1727.81 285.484 1724.39 288.905C1721.17 292.126 1716.85 293.736 1711.41 293.736H1602.73C1597.3 293.736 1592.87 292.126 1589.45 288.905C1586.23 285.484 1584.62 281.056 1584.62 275.622V100.528Z" fill="#FF2B00"/>
<g clip-path="url(#clip0_23_310)">
<path d="M775.529 266.407C776.393 267.59 777.276 268.76 778.187 269.903C778.3 270.049 778.42 270.195 778.533 270.341C779.144 271.106 779.775 271.863 780.407 272.614C780.812 273.1 781.224 273.578 781.643 274.05C781.975 274.429 782.314 274.808 782.653 275.18C783.351 275.951 784.062 276.715 784.786 277.473C784.973 277.665 785.165 277.858 785.351 278.051C786.202 278.921 787.059 279.779 787.943 280.616C794.244 286.618 801.302 291.828 808.938 296.108L821.399 280.636C822.602 279.141 824.623 278.582 826.424 279.234L864.619 293.084C876.661 285.827 886.982 276.569 895.303 265.563C911.38 244.296 916.192 221.653 917.235 205.43L826.078 268.946C824.589 269.983 822.735 270.288 820.994 269.777L773.993 256.106L767.932 254.344C770.198 258.558 772.744 262.579 775.535 266.414L775.529 266.407Z" fill="#FF2B00"/>
<path d="M826.147 154.36C826.147 154.36 826.114 154.38 826.101 154.387L832.348 168.775C835.771 168.317 839.226 168.27 842.696 168.656C844.769 165.897 847.182 163.458 849.88 161.358L840.675 142.145C824.579 110.802 797.842 50.0505 816.677 25.952C819.714 22.0708 829.969 11.9954 845.254 11.9954C856.699 11.9954 864.741 16.8005 869.512 21.765C871.938 24.2839 875.746 24.8621 878.837 23.2272L879.003 23.1408C884.32 20.3295 885.802 14.6604 879.608 9.56959C872.138 3.42866 858.972 -1.22356 843.54 0.285088C840.895 0.544283 820.053 2.89698 807.113 19.4589C791.162 39.8688 795.602 68.7458 806.156 101.903C811.619 119.063 817.075 132.421 826.154 154.36H826.147Z" fill="#FF2B00"/>
<path d="M878.809 140.265C871.199 140.265 863.775 141.07 856.624 142.605C853.66 143.243 850.749 144.014 847.885 144.898L854.345 158.376C858.572 155.95 863.27 154.302 868.129 153.584C869.584 153.371 870.933 154.375 871.146 155.824C871.359 157.279 870.355 158.628 868.906 158.841C863.822 159.592 858.924 161.506 854.737 164.384C851.381 166.69 848.496 169.568 846.157 172.944C845.559 173.815 844.522 174.267 843.472 174.114C838.693 173.409 833.915 173.622 829.263 174.745C825.548 175.642 822.005 177.098 818.715 179.085C818.283 179.344 817.812 179.47 817.34 179.47C816.442 179.47 815.565 179.012 815.06 178.188C814.302 176.932 814.701 175.297 815.957 174.539C819.413 172.446 823.128 170.877 827.01 169.84L821.527 157.206C792.61 175.988 773.469 208.553 773.469 245.598C773.469 247.22 773.509 248.828 773.582 250.43L822.47 264.652C822.663 264.706 822.869 264.672 823.029 264.559L916.784 199.236C917.967 198.412 919.482 198.332 920.745 199.023C922.008 199.714 922.752 201.03 922.699 202.466C922.054 219.579 917.509 244.974 899.531 268.753C890.645 280.503 879.6 290.353 866.686 298.022C865.716 298.6 864.546 298.707 863.483 298.321L825.155 284.424L812.249 300.448C811.511 301.365 810.421 301.857 809.311 301.857C808.7 301.857 808.088 301.711 807.523 301.398C799.043 296.779 791.214 291.084 784.262 284.458C782.382 282.67 780.574 280.816 778.833 278.902C792.769 320.758 832.253 350.938 878.795 350.938C936.975 350.938 984.135 303.778 984.135 245.598C984.135 187.419 936.975 140.259 878.795 140.259L878.809 140.265ZM867.344 312.896C867.105 312.504 867.404 311.826 867.723 311.839C872.302 312.065 879.885 311.6 888.997 307.041L899.877 333.027C889.788 334.728 877.679 329.97 867.351 312.903L867.344 312.896ZM913.614 325.776C911.188 328.202 908.271 330.209 905.014 331.545L893.656 304.409C895.59 303.193 897.577 301.79 899.604 300.169C901.91 298.321 904.084 296.327 906.131 294.254L922.008 314.504C919.622 318.798 916.817 322.573 913.614 325.776ZM924.607 309.207L909.793 290.306C919.775 278.875 926.208 265.862 929.418 258.618C929.624 258.159 930.01 258.252 930.07 258.771C932.449 279.015 930.276 296.101 924.6 309.207H924.607Z" fill="#FF2B00"/>
</g>
<defs>
<clipPath id="clip0_23_310">
<rect width="216.222" height="350.943" fill="white" transform="translate(767.927)"/>
</clipPath>
</defs>
</svg>
