<svg width="100" height="100" viewBox="0 0 100 100" fill="none" xmlns="http://www.w3.org/2000/svg">
<path fill-rule="evenodd" clip-rule="evenodd" d="M26.5404 4.76701C26.9156 0.538897 31.9113 -1.49831 35.1363 1.26159L43.4902 8.41031C44.0782 8.91349 44.9817 8.73637 45.3362 8.04844C47.2803 4.27501 52.6755 4.27502 54.6196 8.04844C55.0622 8.9075 56.1872 9.13451 56.9282 8.51427L65.3959 1.42712C68.651 -1.29731 73.6241 0.794506 73.9531 5.02651L74.9255 17.5399C74.9255 17.5401 74.9255 17.5402 74.9253 17.5403L76.3981 17.0692C80.4408 15.7759 84.2556 19.5906 82.9622 23.6334C82.6722 24.5398 83.2975 25.4812 84.2455 25.5653L95.2329 26.5404C99.461 26.9156 101.498 31.9113 98.7385 35.1363L91.6031 43.4741C91.0749 44.0913 91.2608 45.0397 91.983 45.4118C95.7563 47.3559 95.7564 52.7511 91.983 54.6952C91.1351 55.1319 90.9111 56.2421 91.5232 56.9734L98.5729 65.3959C101.297 68.651 99.2055 73.6241 94.9736 73.9531L84.0874 74.7991C83.2599 74.8634 82.7091 75.6828 82.962 76.4733C84.2555 80.5161 80.4407 84.3311 76.3979 83.0376C75.4723 82.7415 74.511 83.38 74.4251 84.348L73.4595 95.2329L73.4499 95.3316C73.0098 99.4598 68.1411 101.445 64.9396 98.8023L64.8636 98.7385L56.6033 91.6695C55.9714 91.1288 55.0004 91.3192 54.6196 92.0586C52.6907 95.8024 47.3644 95.8316 45.3825 92.1462L45.3362 92.0586C44.8806 91.1741 43.7224 90.9404 42.9595 91.579L34.604 98.573L34.5273 98.636C31.2971 101.244 26.4503 99.205 26.0554 95.0723L26.0469 94.9736L25.2053 84.1446C25.142 83.3306 24.3358 82.7887 23.5582 83.0376L23.4633 83.0669C19.4874 84.2619 15.7693 80.5439 16.9644 76.568L16.9939 76.4733C17.3015 75.5117 16.6381 74.5129 15.6324 74.4237L4.76706 73.4596C0.57202 73.0872 -1.46634 68.1665 1.19772 64.9396L1.26164 64.8636L8.34398 56.5872C8.85972 55.9846 8.67808 55.0584 7.97291 54.6952L7.88513 54.6488C4.22885 52.6824 4.22881 47.4242 7.88513 45.4579L7.97309 45.4118C8.86877 44.9503 9.10539 43.7773 8.45866 43.0046L1.42717 34.604C-1.27599 31.3744 0.762103 26.4534 4.92768 26.0554L5.02656 26.0468L15.9417 25.1985C16.7152 25.1384 17.2301 24.3723 16.9937 23.6334C15.7104 19.6221 19.456 15.8353 23.4635 17.0399L23.558 17.0692C24.5005 17.3708 25.4795 16.7205 25.567 15.7348L26.5404 4.76701ZM65.7864 79.6436C63.4272 78.947 60.8991 79.9942 59.7234 82.1549L59.6675 82.2604C58.0722 85.3569 58.8147 89.1438 61.4612 91.4087L67.0462 96.1883C68.198 97.1738 69.9819 96.4462 70.116 94.9363L70.8134 87.0753C71.1072 83.7642 69.0664 80.6918 65.9004 79.6788L65.7864 79.6436ZM40.2326 82.1549C39.038 79.9594 36.447 78.9137 34.0557 79.6788C30.7215 80.7455 28.558 83.9643 28.8293 87.4543L29.3935 94.7134C29.511 96.2247 31.2871 96.9718 32.4497 95.9989L38.5462 90.8959C41.0751 88.7791 41.7988 85.1921 40.2884 82.2604L40.2326 82.1549ZM53.1331 75.57C51.2006 73.9053 48.3481 73.8805 46.3868 75.5112L43.0335 78.2993C42.5753 78.6803 42.4427 79.3828 42.7741 79.8781C42.9543 80.1474 43.1208 80.4292 43.2722 80.7232L48.3203 90.521C49.0146 91.8687 50.9413 91.8687 51.6356 90.521L56.6836 80.7232C56.7494 80.5956 56.818 80.4703 56.8893 80.3473C57.2392 79.7437 57.0494 78.9263 56.5128 78.4803L56.4371 78.4164L53.1331 75.57ZM24.9946 65.1017C24.4531 65.0422 23.914 65.4105 23.8146 65.9462C23.7493 66.2984 23.6612 66.6498 23.5496 66.9987L20.1908 77.4962C19.7289 78.9401 21.0914 80.3026 22.5353 79.8407L33.0328 76.4819C33.168 76.4386 33.3037 76.3988 33.4397 76.3626C34.1158 76.1824 34.5607 75.4677 34.4964 74.7709L34.4884 74.672L34.1644 70.3231C33.975 67.7795 31.9758 65.745 29.4359 65.5112L25.0932 65.1117L24.9946 65.1017ZM76.3117 66.6824C76.1116 65.9634 75.3491 65.4882 74.6048 65.5436L70.2559 65.8674L70.1371 65.8774C67.6492 66.1192 65.6741 68.0959 65.444 70.5961L65.0445 74.9387C64.9899 75.5314 65.3924 76.1211 65.9762 76.2371C66.293 76.3 66.6091 76.3814 66.9231 76.4819L77.4206 79.8407C78.8645 80.3027 80.227 78.9401 79.7651 77.4962L76.4062 66.9987C76.3726 66.8935 76.3411 66.788 76.3117 66.6824ZM41.3369 24.2258C40.1884 23.2364 38.4017 23.9583 38.2628 25.4679L37.8632 29.8105C37.4792 33.9831 34.1369 37.2678 29.9582 37.5789L25.6089 37.9027C24.0972 38.0153 23.3444 39.789 24.3136 40.9547L27.1018 44.308C29.7808 47.5301 29.7398 52.2161 27.005 55.3909L24.1588 58.695C23.1694 59.8436 23.8911 61.6301 25.4008 61.7691L29.7433 62.1686C33.916 62.5526 37.2006 65.8951 37.5117 70.0738L37.8355 74.4229C37.9481 75.9347 39.7218 76.6876 40.8875 75.7184L44.2409 72.9302C47.4629 70.2512 52.1491 70.292 55.3238 73.0269L58.6278 75.8732C59.7764 76.8626 61.5631 76.1407 61.702 74.6311L62.1016 70.2885C62.4855 66.1158 65.8279 62.8312 70.0066 62.5201L74.3557 62.1963C75.8674 62.0837 76.6204 60.31 75.6512 59.1443L72.8629 55.791C70.184 52.5689 70.225 47.8829 72.9598 44.7081L75.806 41.4041C76.7954 40.2556 76.0736 38.4689 74.564 38.3299L70.2213 37.9304C66.0487 37.5464 62.764 34.2039 62.4529 30.0252L62.1293 25.6761C62.0167 24.1643 60.243 23.4114 59.0773 24.3805L55.7239 27.1688C52.5019 29.8478 47.8157 29.807 44.6409 27.0721L41.3369 24.2258ZM82.1851 59.7429L82.0795 59.7986C79.8839 60.9933 78.8383 63.5845 79.6034 65.9758C80.6654 69.2951 83.8698 71.449 87.3445 71.179L94.7133 70.6065C96.2247 70.4889 96.9718 68.713 95.9988 67.5505L90.9429 61.5098C88.7962 58.9449 85.1583 58.211 82.1851 59.7429ZM3.81189 67.0462C2.82629 68.198 3.55386 69.982 5.06389 70.116L13.0522 70.8249C16.3203 71.1148 19.3528 69.1006 20.3527 65.9758C21.1299 63.5465 20.0383 60.9111 17.7709 59.7429C14.6353 58.1274 10.8004 58.8794 8.50707 61.5594L3.81189 67.0462ZM80.3602 43.1928C79.7106 42.8263 78.836 43.0296 78.3492 43.5947L75.5028 46.8989C73.8382 48.8314 73.8133 51.6838 75.444 53.645L78.2321 56.9983C78.6114 57.4545 79.3105 57.5862 79.8036 57.2564C80.0726 57.0766 80.3542 56.9103 80.6478 56.759L90.4456 51.7112C91.7932 51.0169 91.7933 49.09 90.4458 48.3957L80.6476 43.3478C80.5505 43.2978 80.4547 43.2461 80.3602 43.1928ZM21.7325 43.1007C21.3534 42.6447 20.6544 42.5135 20.1619 42.8439C19.8901 43.0263 19.6054 43.1947 19.3083 43.3478L9.51027 48.3957C8.16266 49.09 8.16282 51.0169 9.51045 51.7112L19.3081 56.759C19.4326 56.8232 19.5549 56.89 19.675 56.9595C20.2819 57.3104 21.1034 57.119 21.5515 56.5798L21.6156 56.5043L24.462 53.2001C26.1006 51.2978 26.1503 48.5041 24.596 46.5465L24.5208 46.454L21.7325 43.1007ZM79.6034 34.131C78.8261 36.5603 79.9176 39.1957 82.1849 40.3639C85.3011 41.9694 89.1121 41.2222 91.3913 38.559L96.1882 32.9539C97.1739 31.8021 96.4462 30.018 94.9362 29.8839L87.0509 29.1841C83.7169 28.8882 80.6233 30.9431 79.6034 34.131ZM20.3527 34.131C19.2716 30.7524 16.0097 28.56 12.473 28.8349L5.28661 29.3935C3.77521 29.511 3.02808 31.2871 4.00111 32.4496L9.17316 38.6289C11.2806 41.1468 14.852 41.8674 17.7709 40.3637C20.0028 39.2138 21.0956 36.6423 20.3878 34.245L20.3527 34.131ZM79.7653 22.6106C80.2272 21.1668 78.8646 19.8042 77.4208 20.2662L66.9231 23.6252C66.8209 23.6579 66.7184 23.6885 66.6158 23.7172C65.8963 23.9182 65.4211 24.6817 65.4766 25.4268L65.8002 29.7759C65.9866 32.2797 67.9269 34.2902 70.4101 34.5754L70.5289 34.588L74.8716 34.9873C75.4602 35.0415 76.0453 34.6415 76.1601 34.0616C76.2233 33.7426 76.3051 33.4244 76.4062 33.1083L79.7653 22.6106ZM22.5351 20.2662C21.0912 19.8043 19.7288 21.1668 20.1908 22.6106L23.5496 33.1083C23.5919 33.2405 23.6308 33.3731 23.6664 33.5059C23.8475 34.1828 24.5633 34.6279 25.2611 34.5636L25.3598 34.5554L29.7089 34.2316C32.2128 34.0451 34.2233 32.1048 34.5084 29.6215L34.5208 29.5029L34.9203 25.1603C34.9745 24.5718 34.574 23.9868 33.9941 23.8727C33.6724 23.8094 33.3515 23.7271 33.0328 23.6252L22.5351 20.2662ZM51.6358 9.58562C50.9414 8.23805 49.0144 8.23803 48.3201 9.58562L43.2724 19.3837C43.224 19.4776 43.174 19.5704 43.1226 19.6618C42.7551 20.3149 42.96 21.1937 43.5277 21.6828L46.8317 24.529C48.734 26.1676 51.5277 26.2173 53.4853 24.663L53.578 24.5878L56.9313 21.7995C57.3852 21.4222 57.5155 20.7265 57.1868 20.2363C57.0047 19.9647 56.8365 19.6803 56.6836 19.3837L51.6358 9.58562ZM32.9539 3.81185C31.8021 2.82617 30.0179 3.55378 29.8839 5.06385L29.1728 13.0767C28.8808 16.3676 30.909 19.4212 34.0557 20.428C36.447 21.1932 39.038 20.1473 40.2326 17.9517L40.2885 17.8463C41.9141 14.691 41.1574 10.8321 38.4607 8.52433L32.9539 3.81185ZM70.6064 5.28657C70.489 3.77516 68.713 3.02807 67.5505 4.00106L61.4269 9.12624C58.8731 11.2637 58.1423 14.8859 59.6675 17.8463C60.8174 20.0782 63.3889 21.1709 65.7862 20.4632L65.9004 20.428C69.2644 19.3516 71.4473 16.1039 71.1736 12.5825L70.6064 5.28657Z" fill="black"/>
</svg>
