<svg width="56" height="56" viewBox="0 0 56 56" fill="none" xmlns="http://www.w3.org/2000/svg">
<path d="M38.7243 2.41852L53.533 17.2273C53.9887 17.6829 53.9887 18.4216 53.533 18.8772C53.3583 19.052 53.1326 19.1667 52.8883 19.2049L49.4488 19.7426L36.2496 6.54332L36.7445 3.07848C36.8357 2.44064 37.4265 1.99741 38.0644 2.08853C38.3143 2.12423 38.5458 2.24002 38.7243 2.41852ZM10.7212 47.0115C19.4068 39.238 29.3763 36.9133 40.2216 34.1304L41.2632 24.7564L31.2359 14.729L21.8617 15.7705C19.0789 26.6159 16.7541 36.5855 8.98051 45.2709L5.72607 42.0166C12.3257 34.3168 14.8006 25.7924 18.1004 11.4931L32.9498 9.84314L46.1492 23.0426L44.4991 37.8917C30.1999 41.1915 21.6753 43.6665 13.9757 50.2661L10.7212 47.0115ZM23.0502 32.942C21.2277 31.1194 21.2277 28.1647 23.0502 26.3424C24.8727 24.5198 27.8274 24.5198 29.6497 26.3424C31.4723 28.1647 31.4723 31.1194 29.6497 32.942C27.8274 34.7643 24.8727 34.7643 23.0502 32.942Z" fill="#5F1030"/>
</svg>
