<svg width="56" height="56" viewBox="0 0 56 56" fill="none" xmlns="http://www.w3.org/2000/svg">
<path d="M28 0C43.4622 0 56 11.1378 56 24.8889C56 33.4757 49.0311 40.4443 40.4443 40.4443H34.9378C32.3557 40.4443 30.2711 42.5289 30.2711 45.1111C30.2711 46.2932 30.7378 47.3822 31.4532 48.1911C32.2 49.0311 32.6668 50.12 32.6668 51.3332C32.6668 53.9157 30.52 56 28 56C12.5378 56 0 43.4622 0 28C0 12.5378 12.5378 0 28 0ZM24.6711 45.1111C24.6711 39.436 29.2628 34.8443 34.9378 34.8443H40.4443C45.9382 34.8443 50.4 30.3828 50.4 24.8889C50.4 14.3898 40.5096 5.6 28 5.6C15.6306 5.6 5.6 15.6306 5.6 28C5.6 39.732 14.6233 49.3598 26.1072 50.321C25.1854 48.767 24.6711 46.9731 24.6711 45.1111ZM15.4 28C13.0804 28 11.2 26.1195 11.2 23.8C11.2 21.4804 13.0804 19.6 15.4 19.6C17.7196 19.6 19.6 21.4804 19.6 23.8C19.6 26.1195 17.7196 28 15.4 28ZM40.6 28C38.2805 28 36.4 26.1195 36.4 23.8C36.4 21.4804 38.2805 19.6 40.6 19.6C42.9195 19.6 44.8 21.4804 44.8 23.8C44.8 26.1195 42.9195 28 40.6 28ZM28 19.6C25.6805 19.6 23.8 17.7196 23.8 15.4C23.8 13.0804 25.6805 11.2 28 11.2C30.3195 11.2 32.2 13.0804 32.2 15.4C32.2 17.7196 30.3195 19.6 28 19.6Z" fill="#FF2B00"/>
</svg>
