<svg width="24" height="24" viewBox="0 0 24 24" fill="none" xmlns="http://www.w3.org/2000/svg">
<path d="M12.001 8.99994C10.3436 8.99994 9.00098 10.343 9.00098 11.9999C9.00098 13.6572 10.3441 14.9999 12.001 14.9999C13.6583 14.9999 15.001 13.6568 15.001 11.9999C15.001 10.3426 13.6579 8.99994 12.001 8.99994ZM12.001 6.99994C14.7614 6.99994 17.001 9.23704 17.001 11.9999C17.001 14.7604 14.7639 16.9999 12.001 16.9999C9.24051 16.9999 7.00098 14.7628 7.00098 11.9999C7.00098 9.23947 9.23808 6.99994 12.001 6.99994ZM18.501 6.74909C18.501 7.4392 17.9402 7.99911 17.251 7.99911C16.5609 7.99911 16.001 7.43834 16.001 6.74909C16.001 6.05984 16.5617 5.49994 17.251 5.49994C17.9393 5.49907 18.501 6.05984 18.501 6.74909ZM12.001 3.99994C9.5265 3.99994 9.12318 4.00649 7.97227 4.05774C7.18815 4.09455 6.66253 4.20001 6.17416 4.38961C5.74016 4.55793 5.42709 4.75892 5.09352 5.09249C4.75867 5.42734 4.55804 5.73957 4.3904 6.17377C4.20036 6.66326 4.09493 7.18805 4.05878 7.97109C4.00703 9.07514 4.00098 9.46099 4.00098 11.9999C4.00098 14.4744 4.00753 14.8777 4.05877 16.0285C4.0956 16.8123 4.2012 17.3387 4.39034 17.8259C4.5591 18.2605 4.7605 18.5743 5.09246 18.9063C5.42863 19.242 5.74179 19.4433 6.17187 19.6093C6.66619 19.8004 7.19148 19.906 7.97212 19.9421C9.07618 19.9938 9.46203 19.9999 12.001 19.9999C14.4755 19.9999 14.8788 19.9933 16.0296 19.9421C16.8117 19.9054 17.3385 19.7995 17.827 19.6105C18.2604 19.4422 18.5752 19.2401 18.9074 18.9084C19.2436 18.5717 19.4445 18.2593 19.6107 17.8282C19.8013 17.3357 19.9071 16.8097 19.9432 16.0288C19.9949 14.9247 20.001 14.5388 20.001 11.9999C20.001 9.52546 19.9944 9.12215 19.9432 7.97131C19.9064 7.189 19.8005 6.66143 19.6113 6.17312C19.4434 5.74032 19.2417 5.42629 18.9084 5.09249C18.573 4.75709 18.2616 4.55687 17.8271 4.38936C17.338 4.19948 16.8124 4.0939 16.0298 4.05775C14.9258 4.00599 14.5399 3.99994 12.001 3.99994ZM12.001 1.99994C14.7176 1.99994 15.0568 2.00994 16.1235 2.05994C17.1876 2.10911 17.9135 2.27744 18.551 2.52494C19.2101 2.77911 19.7668 3.12244 20.3226 3.67827C20.8776 4.23411 21.221 4.79244 21.476 5.44994C21.7226 6.08661 21.891 6.81327 21.941 7.87744C21.9885 8.94411 22.001 9.28327 22.001 11.9999C22.001 14.7166 21.991 15.0557 21.941 16.1224C21.8918 17.1866 21.7226 17.9124 21.476 18.5499C21.2218 19.2091 20.8776 19.7657 20.3226 20.3216C19.7668 20.8766 19.2076 21.2199 18.551 21.4749C17.9135 21.7216 17.1876 21.8899 16.1235 21.9399C15.0568 21.9874 14.7176 21.9999 12.001 21.9999C9.28431 21.9999 8.94514 21.9899 7.87848 21.9399C6.81431 21.8907 6.08931 21.7216 5.45098 21.4749C4.79264 21.2207 4.23514 20.8766 3.67931 20.3216C3.12348 19.7657 2.78098 19.2066 2.52598 18.5499C2.27848 17.9124 2.11098 17.1866 2.06098 16.1224C2.01348 15.0557 2.00098 14.7166 2.00098 11.9999C2.00098 9.28327 2.01098 8.94411 2.06098 7.87744C2.11014 6.81244 2.27848 6.08744 2.52598 5.44994C2.78014 4.79161 3.12348 4.23411 3.67931 3.67827C4.23514 3.12244 4.79348 2.77994 5.45098 2.52494C6.08848 2.27744 6.81348 2.10994 7.87848 2.05994C8.94514 2.01244 9.28431 1.99994 12.001 1.99994Z" fill="#FF2B00"/>
</svg>
