<svg width="56" height="56" viewBox="0 0 56 56" fill="none" xmlns="http://www.w3.org/2000/svg">
<path d="M23.296 11.8065C25.9755 7.51892 30.7381 4.66675 36.1668 4.66675C44.5433 4.66675 51.3335 11.4571 51.3335 19.8334C51.3335 22.3541 50.7187 24.7313 49.6304 26.8229C52.1154 29.1632 53.6668 32.4838 53.6668 36.1667C53.6668 43.2545 47.9212 49.0001 40.8335 49.0001H21.0002C10.6908 49.0001 2.3335 40.6428 2.3335 30.3334C2.3335 20.0241 10.6908 11.6667 21.0002 11.6667C21.7774 11.6667 22.5436 11.7143 23.296 11.8065ZM28.1294 13.0765C32.8243 15.0183 36.5546 18.8202 38.4012 23.5635C39.1887 23.4125 40.0019 23.3334 40.8335 23.3334C42.5487 23.3334 44.1856 23.6699 45.6812 24.2805C46.3136 22.9302 46.6668 21.4231 46.6668 19.8334C46.6668 14.0344 41.9659 9.33341 36.1668 9.33341C32.9415 9.33341 30.0556 10.7878 28.1294 13.0765ZM40.8335 44.3334C45.3438 44.3334 49.0002 40.6771 49.0002 36.1667C49.0002 31.6564 45.3438 28.0001 40.8335 28.0001C38.548 28.0001 36.4821 28.9388 34.9997 30.4517C34.9999 30.4123 35.0002 30.3728 35.0002 30.3334C35.0002 22.6014 28.7321 16.3334 21.0002 16.3334C13.2682 16.3334 7.00016 22.6014 7.00016 30.3334C7.00016 38.0654 13.2682 44.3334 21.0002 44.3334H40.8335Z" fill="#FEE7F6"/>
</svg>
