<svg width="56" height="56" viewBox="0 0 56 56" fill="none" xmlns="http://www.w3.org/2000/svg">
<path d="M27.9998 51.3334C15.1132 51.3334 4.6665 40.8866 4.6665 28.0001C4.6665 15.1134 15.1132 4.66675 27.9998 4.66675C40.8864 4.66675 51.3332 15.1134 51.3332 28.0001C51.3332 40.8866 40.8864 51.3334 27.9998 51.3334ZM27.9998 46.6667C38.3092 46.6667 46.6665 38.3094 46.6665 28.0001C46.6665 17.6908 38.3092 9.33341 27.9998 9.33341C17.6905 9.33341 9.33317 17.6908 9.33317 28.0001C9.33317 38.3094 17.6905 46.6667 27.9998 46.6667ZM16.3332 28.0001H20.9998C20.9998 31.8662 24.1337 35.0001 27.9998 35.0001C31.8659 35.0001 34.9998 31.8662 34.9998 28.0001H39.6665C39.6665 34.4433 34.4431 39.6667 27.9998 39.6667C21.5565 39.6667 16.3332 34.4433 16.3332 28.0001Z" fill="#5F1030"/>
</svg>
