<svg width="56" height="56" viewBox="0 0 56 56" fill="none" xmlns="http://www.w3.org/2000/svg">
<path d="M18.6665 13.9999V23.3309H25.6665V13.9999H30.3332V23.3309H37.3332V13.9999H41.9998V23.3309L44.3332 23.3333C48.0611 23.3333 51.1085 26.2474 51.3213 29.9219L51.3332 30.3333V32.6666C51.3332 35.0324 50.4528 37.1925 49.0022 38.8375L48.9998 48.9999C48.9998 50.2886 47.9552 51.3333 46.6665 51.3333H9.33317C8.04452 51.3333 6.99984 50.2886 6.99984 48.9999L6.9979 38.8268C5.78212 37.4415 4.96505 35.6866 4.73167 33.7362L4.67936 33.1454L4.6665 32.6666V30.3333C4.6665 26.6053 7.58065 23.558 11.2552 23.3452L11.6665 23.3333L13.9998 23.3309V13.9999H18.6665ZM21.0045 38.8289L20.8778 38.9761C19.3838 40.6029 17.3215 41.6959 15.0131 41.9456L14.4761 41.988L13.9998 41.9999C13.1954 41.9999 12.4139 41.898 11.6679 41.7055L11.6665 46.6666H44.3332L44.335 41.7055C43.5886 41.8977 42.8062 41.9999 41.9998 41.9999C39.5214 41.9999 37.2688 41.0339 35.5974 39.458L35.2483 39.111L34.9998 38.8359L34.7513 39.111C33.2748 40.6573 31.2721 41.6973 29.0307 41.9437L28.4656 41.9885L27.9998 41.9999C25.4658 41.9999 23.1596 40.9875 21.4732 39.3299L21.1214 38.965L21.0045 38.8289ZM44.3332 27.9999H11.6665C10.4699 27.9999 9.48365 28.9006 9.34887 30.0612L9.33317 30.3333L9.33219 32.5992L9.34115 32.9429C9.48353 35.4001 11.525 37.3333 13.9998 37.3333C16.351 37.3333 18.3109 35.5886 18.6206 33.3654L18.6556 33.0105L18.6675 32.5992C18.7516 29.6858 22.9298 29.5817 23.3064 32.287L23.3322 32.5992L23.3411 32.9429C23.4834 35.4001 25.5249 37.3333 27.9998 37.3333C30.4601 37.3333 32.4756 35.4295 32.6537 33.015L32.6828 32.3558C32.9722 29.6592 37.0275 29.6592 37.3168 32.3558L37.346 33.015C37.524 35.4295 39.5396 37.3333 41.9998 37.3333C44.4601 37.3333 46.4756 35.4295 46.6537 33.015L46.6665 32.6666V30.3333C46.6665 29.1367 45.7658 28.1504 44.6052 28.0156L44.3332 27.9999ZM16.3332 2.33325C19.412 4.36603 20.2142 7.20532 19.7139 9.07246C19.2136 10.9396 17.2944 12.0476 15.4273 11.5473C13.5602 11.047 12.4521 9.12785 12.9524 7.26071C13.6468 4.66918 16.3332 5.83325 16.3332 2.33325ZM27.9998 2.33325C31.0787 4.36603 31.8809 7.20532 31.3806 9.07246C30.8803 10.9396 28.9612 12.0476 27.094 11.5473C25.2269 11.047 24.1188 9.12785 24.6191 7.26071C25.3135 4.66918 27.9998 5.83325 27.9998 2.33325ZM39.6665 2.33325C42.7453 4.36603 43.5475 7.20532 43.0473 9.07246C42.547 10.9396 40.6278 12.0476 38.7607 11.5473C36.8936 11.047 35.7855 9.12785 36.2857 7.26071C36.9801 4.66918 39.6665 5.83325 39.6665 2.33325Z" fill="#FEE7F6"/>
</svg>
