<svg width="24" height="24" viewBox="0 0 24 24" fill="none" xmlns="http://www.w3.org/2000/svg">
<path d="M7.25361 18.4943L7.97834 18.9169C9.18909 19.6229 10.5651 19.9999 12.001 19.9999C16.4193 19.9999 20.001 16.4182 20.001 11.9999C20.001 7.58166 16.4193 3.99994 12.001 3.99994C7.5827 3.99994 4.00098 7.58166 4.00098 11.9999C4.00098 13.4362 4.37821 14.8127 5.08466 16.0237L5.50704 16.7477L4.85355 19.1493L7.25361 18.4943ZM2.00516 21.9999L3.35712 17.0314C2.49494 15.5535 2.00098 13.8344 2.00098 11.9999C2.00098 6.47709 6.47813 1.99994 12.001 1.99994C17.5238 1.99994 22.001 6.47709 22.001 11.9999C22.001 17.5227 17.5238 21.9999 12.001 21.9999C10.1671 21.9999 8.44851 21.5063 6.97086 20.6446L2.00516 21.9999ZM8.39232 7.30827C8.5262 7.29886 8.66053 7.29742 8.79459 7.30396C8.84875 7.30752 8.90265 7.31378 8.95659 7.32001C9.11585 7.3384 9.29098 7.43539 9.34986 7.56888C9.64818 8.2453 9.93764 8.92559 10.2182 9.60957C10.2801 9.76056 10.2428 9.95627 10.125 10.1456C10.0652 10.2427 9.97128 10.3789 9.86248 10.5182C9.74939 10.6629 9.50599 10.929 9.50599 10.929C9.50599 10.929 9.40738 11.0472 9.44455 11.1943C9.45903 11.2499 9.50521 11.3309 9.54708 11.399C9.57027 11.4367 9.5918 11.4704 9.60577 11.4937C9.86169 11.921 10.2057 12.3542 10.6259 12.7615C10.7463 12.8782 10.8631 12.9973 10.9887 13.1079C11.457 13.5208 11.9868 13.8582 12.559 14.1081L12.5641 14.1104C12.6486 14.1468 12.692 14.1667 12.8157 14.2192C12.8781 14.2456 12.9419 14.2684 13.0074 14.2857C13.0311 14.2919 13.0554 14.2954 13.0798 14.2971C13.2415 14.3068 13.335 14.2031 13.3749 14.1554C14.0984 13.2789 14.1646 13.2217 14.1696 13.2221V13.2237C14.2647 13.1235 14.4142 13.0887 14.5476 13.0969C14.6085 13.1006 14.6691 13.1123 14.7245 13.1376C15.2563 13.3802 16.1258 13.7586 16.1258 13.7586L16.7073 14.02C16.8047 14.067 16.8936 14.1777 16.8979 14.2853C16.9005 14.3522 16.9077 14.4602 16.8838 14.6578C16.8525 14.9165 16.7738 15.228 16.6956 15.3912C16.6406 15.5057 16.5694 15.6073 16.4866 15.6933C16.3743 15.8099 16.2909 15.8807 16.1559 15.9813C16.0737 16.0425 16.0311 16.0713 16.0311 16.0713C15.8922 16.1589 15.8139 16.2027 15.6484 16.2908C15.391 16.4279 15.1066 16.5067 14.8153 16.5217C14.6296 16.5312 14.4444 16.5446 14.2589 16.5346C14.2507 16.5341 13.6907 16.4481 13.6907 16.4481C12.2688 16.0741 10.9538 15.3735 9.85034 14.4019C9.62473 14.2033 9.4155 13.9884 9.20194 13.7758C8.31288 12.8907 7.63982 11.9363 7.23169 11.0335C7.03043 10.5883 6.90299 10.1115 6.90098 9.62092C6.89729 9.01399 7.09599 8.42314 7.46569 7.9418C7.53857 7.84691 7.60774 7.74849 7.72709 7.6358C7.85348 7.51645 7.93392 7.45238 8.02057 7.40805C8.13607 7.34896 8.26293 7.31736 8.39232 7.30827Z" fill="#FF2B00"/>
</svg>
