<svg width="20" height="20" viewBox="0 0 20 20" fill="none" xmlns="http://www.w3.org/2000/svg">
<path d="M6.66663 5.00001V8.33251H9.16663V5.00001H10.8333V8.33251H13.3333V5.00001H15V8.33251L15.8333 8.33334C17.1647 8.33334 18.253 9.37409 18.329 10.6864L18.3333 10.8333V11.6667C18.3333 12.5116 18.0189 13.2831 17.5008 13.8706L17.5 17.5C17.5 17.9603 17.1269 18.3333 16.6666 18.3333H3.33329C2.87306 18.3333 2.49996 17.9603 2.49996 17.5L2.49927 13.8668C2.06506 13.372 1.77325 12.7453 1.6899 12.0487L1.67122 11.8377L1.66663 11.6667V10.8333C1.66663 9.50193 2.70739 8.41359 4.01973 8.33759L4.16663 8.33334L4.99996 8.33251V5.00001H6.66663ZM7.50163 13.8675L7.45636 13.9201C6.92281 14.5011 6.18627 14.8914 5.36183 14.9806L5.17007 14.9958L4.99996 15C4.71266 15 4.43356 14.9636 4.16713 14.8948L4.16663 16.6667H15.8333L15.834 14.8948C15.5674 14.9635 15.288 15 15 15C14.1148 15 13.3103 14.655 12.7134 14.0922L12.5887 13.9683L12.5 13.87L12.4112 13.9683C11.8839 14.5205 11.1686 14.8919 10.3681 14.9799L10.1663 14.9959L9.99996 15C9.09496 15 8.27132 14.6384 7.66902 14.0464L7.54338 13.9161L7.50163 13.8675ZM15.8333 10H4.16663C3.73926 10 3.38703 10.3217 3.3389 10.7362L3.33329 10.8333L3.33294 11.6426L3.33614 11.7653C3.38699 12.6429 4.11608 13.3333 4.99996 13.3333C5.83964 13.3333 6.53963 12.7103 6.65023 11.9163L6.66273 11.7895L6.66698 11.6426C6.69703 10.6021 8.18923 10.5649 8.32373 11.5311L8.33294 11.6426L8.33613 11.7653C8.38696 12.6429 9.11604 13.3333 9.99996 13.3333C10.8786 13.3333 11.5985 12.6534 11.662 11.7911L11.6725 11.5557C11.7758 10.5926 13.2241 10.5926 13.3275 11.5557L13.3379 11.7911C13.4015 12.6534 14.1213 13.3333 15 13.3333C15.8786 13.3333 16.5985 12.6534 16.662 11.7911L16.6666 11.6667V10.8333C16.6666 10.406 16.345 10.0538 15.9305 10.0056L15.8333 10ZM5.83329 0.833344C6.93286 1.55934 7.21938 2.57337 7.0407 3.2402C6.86203 3.90704 6.1766 4.30276 5.50977 4.12409C4.84293 3.94541 4.44721 3.25998 4.62588 2.59315C4.87388 1.6676 5.83329 2.08334 5.83329 0.833344ZM9.99996 0.833344C11.0995 1.55934 11.386 2.57337 11.2074 3.2402C11.0287 3.90704 10.3433 4.30276 9.67646 4.12409C9.00963 3.94541 8.61388 3.25998 8.79254 2.59315C9.04054 1.6676 9.99996 2.08334 9.99996 0.833344ZM14.1666 0.833344C15.2662 1.55934 15.5527 2.57337 15.374 3.2402C15.1954 3.90704 14.51 4.30276 13.8431 4.12409C13.1763 3.94541 12.7805 3.25998 12.9592 2.59315C13.2072 1.6676 14.1666 2.08334 14.1666 0.833344Z" fill="#FF2B00"/>
</svg>
