<svg width="174" height="40" viewBox="0 0 174 40" fill="none" xmlns="http://www.w3.org/2000/svg">
<path d="M2.59647 29.9849C2.05307 29.9849 1.61031 29.8239 1.26817 29.5019C0.946156 29.1598 0.78515 28.717 0.78515 28.1736V10.4528C0.78515 9.90944 0.946156 9.47673 1.26817 9.15472C1.61031 8.81258 2.05307 8.64151 2.59647 8.64151H10.5361C11.7436 8.64151 12.8606 8.76227 13.887 9.00378C14.9135 9.22516 15.799 9.63774 16.5436 10.2415C17.3084 10.8453 17.9021 11.6704 18.3248 12.717C18.7474 13.7635 18.9587 15.1019 18.9587 16.7321C18.9587 18.3421 18.7474 19.6704 18.3248 20.717C17.9021 21.7635 17.3084 22.5887 16.5436 23.1925C15.799 23.7962 14.9135 24.2189 13.887 24.4604C12.8606 24.7019 11.7436 24.8226 10.5361 24.8226H8.72477C8.44301 24.8226 8.22163 24.9031 8.06062 25.0642C7.89962 25.2252 7.81911 25.4465 7.81911 25.7283V28.1736C7.81911 28.717 7.64804 29.1598 7.3059 29.5019C6.98389 29.8239 6.55119 29.9849 6.00779 29.9849H2.59647ZM7.81911 18.1811C7.81911 18.4629 7.89962 18.6843 8.06062 18.8453C8.22163 19.0063 8.44301 19.0868 8.72477 19.0868H9.23798C10.0833 19.0868 10.7374 18.9258 11.2002 18.6038C11.6833 18.2818 11.9248 17.6579 11.9248 16.7321C11.9248 15.7862 11.6833 15.1623 11.2002 14.8604C10.7374 14.5384 10.0833 14.3774 9.23798 14.3774H8.72477C8.44301 14.3774 8.22163 14.4579 8.06062 14.6189C7.89962 14.7799 7.81911 15.0013 7.81911 15.283V18.1811ZM20.3304 10.4528C20.3304 9.90944 20.4914 9.47673 20.8135 9.15472C21.1556 8.81258 21.5984 8.64151 22.1418 8.64151H25.5531C26.0965 8.64151 26.5292 8.81258 26.8512 9.15472C27.1933 9.47673 27.3644 9.90944 27.3644 10.4528V21.683C27.3644 22.5082 27.5254 23.1623 27.8474 23.6453C28.1694 24.1082 28.7933 24.3396 29.7191 24.3396C30.6449 24.3396 31.2688 24.1082 31.5908 23.6453C31.9128 23.1623 32.0738 22.5082 32.0738 21.683V10.4528C32.0738 9.90944 32.2348 9.47673 32.5568 9.15472C32.899 8.81258 33.3418 8.64151 33.8852 8.64151H37.2965C37.8399 8.64151 38.2726 8.81258 38.5946 9.15472C38.9367 9.47673 39.1078 9.90944 39.1078 10.4528V21.683C39.1078 22.9711 38.9367 24.1384 38.5946 25.1849C38.2524 26.2113 37.7091 27.0868 36.9644 27.8113C36.2197 28.5359 35.2436 29.0994 34.0361 29.5019C32.8487 29.8843 31.4097 30.0755 29.7191 30.0755C28.0084 30.0755 26.5594 29.8843 25.3719 29.5019C24.1845 29.0994 23.2185 28.5359 22.4738 27.8113C21.7292 27.0868 21.1858 26.2113 20.8436 25.1849C20.5015 24.1384 20.3304 22.9711 20.3304 21.683V10.4528ZM47.1644 29.7736C46.621 29.7736 46.1782 29.6126 45.8361 29.2906C45.5141 28.9484 45.3531 28.5057 45.3531 27.9623V16.1887C45.3531 15.6453 45.182 15.2126 44.8399 14.8906C44.5179 14.5484 44.0851 14.3774 43.5418 14.3774H42.1531C41.6097 14.3774 41.1669 14.2164 40.8248 13.8943C40.5028 13.5522 40.3418 13.1094 40.3418 12.566V10.4528C40.3418 9.90944 40.5028 9.47673 40.8248 9.15472C41.1669 8.81258 41.6097 8.64151 42.1531 8.64151H55.587C56.1304 8.64151 56.5631 8.81258 56.8851 9.15472C57.2273 9.47673 57.3984 9.90944 57.3984 10.4528V12.566C57.3984 13.1094 57.2273 13.5522 56.8851 13.8943C56.5631 14.2164 56.1304 14.3774 55.587 14.3774H54.1984C53.655 14.3774 53.2122 14.5484 52.8701 14.8906C52.548 15.2126 52.387 15.6453 52.387 16.1887V27.9623C52.387 28.5057 52.216 28.9484 51.8738 29.2906C51.5518 29.6126 51.1191 29.7736 50.5757 29.7736H47.1644ZM57.1224 29.7736C56.3979 29.7736 55.935 29.6528 55.7337 29.4113C55.5526 29.1698 55.5425 28.6969 55.7035 27.9925L59.5073 10.4226C59.6281 9.87925 59.8897 9.44655 60.2922 9.12453C60.6947 8.80252 61.1677 8.64151 61.7111 8.64151H69.7413C70.2847 8.64151 70.7576 8.80252 71.1601 9.12453C71.5627 9.44655 71.8243 9.87925 71.9451 10.4226L75.7488 27.9925C75.9098 28.6969 75.8897 29.1698 75.6885 29.4113C75.5073 29.6528 75.0545 29.7736 74.33 29.7736H70.5564C69.9929 29.7736 69.5803 29.673 69.3186 29.4717C69.057 29.2704 68.8859 28.8981 68.8054 28.3547C68.6847 27.7711 68.5035 27.3887 68.262 27.2076C68.0205 27.0264 67.6079 26.9359 67.0243 26.9359H64.4281C63.8444 26.9359 63.4318 27.0264 63.1903 27.2076C62.969 27.3887 62.7979 27.7711 62.6771 28.3547C62.5362 28.8981 62.3652 29.2704 62.1639 29.4717C61.9627 29.673 61.54 29.7736 60.896 29.7736H57.1224ZM65.8469 21.2C66.7929 21.2 67.1551 20.7069 66.9337 19.7208L66.1186 15.9774C66.0583 15.6956 65.9274 15.5547 65.7262 15.5547C65.5249 15.5547 65.3941 15.6956 65.3337 15.9774L64.5488 19.7208C64.3274 20.7069 64.6796 21.2 65.6054 21.2H65.8469Z" fill="#FF2B00"/>
<path d="M100 10.4528C100 9.90944 100.161 9.47673 100.483 9.15472C100.825 8.81258 101.268 8.64151 101.811 8.64151H109.902C113.082 8.64151 115.457 9.47673 117.026 11.1472C118.596 12.8176 119.381 15.5044 119.381 19.2076C119.381 22.9107 118.586 25.5975 116.996 27.2679C115.406 28.9384 112.961 29.7736 109.66 29.7736H101.811C101.268 29.7736 100.825 29.6126 100.483 29.2906C100.161 28.9484 100 28.5057 100 27.9623V10.4528ZM107.034 15.8868V22.5283C107.034 23.112 107.205 23.5648 107.547 23.8868C107.91 24.1887 108.372 24.3396 108.936 24.3396C109.6 24.3396 110.133 24.1686 110.536 23.8264C110.938 23.4843 111.25 23.0516 111.472 22.5283C111.713 22.005 111.864 21.4415 111.925 20.8377C112.005 20.234 112.045 19.6805 112.045 19.1774C112.045 18.6742 112.005 18.1308 111.925 17.5472C111.844 16.9434 111.693 16.3899 111.472 15.8868C111.25 15.3635 110.938 14.9308 110.536 14.5887C110.133 14.2465 109.6 14.0755 108.936 14.0755C108.372 14.0755 107.91 14.2365 107.547 14.5585C107.205 14.8604 107.034 15.3031 107.034 15.8868ZM129.967 30.0755C126.667 30.0755 124.211 29.1899 122.601 27.4189C121.011 25.6478 120.216 22.9107 120.216 19.2076C120.216 15.5044 121.011 12.7673 122.601 10.9962C124.211 9.22516 126.667 8.33963 129.967 8.33963C133.288 8.33963 135.743 9.22516 137.333 10.9962C138.943 12.7472 139.748 15.4843 139.748 19.2076C139.748 22.9308 138.943 25.678 137.333 27.4491C135.743 29.2 133.288 30.0755 129.967 30.0755ZM129.997 24.3396C130.46 24.3396 130.843 24.2692 131.145 24.1283C131.447 23.9874 131.688 23.7258 131.869 23.3434C132.05 22.961 132.171 22.4377 132.231 21.7736C132.312 21.0893 132.352 20.2138 132.352 19.1472C132.352 18.1409 132.312 17.3157 132.231 16.6717C132.171 16.0076 132.05 15.4843 131.869 15.1019C131.688 14.7195 131.447 14.4579 131.145 14.317C130.843 14.156 130.45 14.0755 129.967 14.0755C129.504 14.0755 129.122 14.1459 128.82 14.2868C128.518 14.4277 128.277 14.6893 128.096 15.0717C127.914 15.4541 127.784 15.9774 127.703 16.6415C127.643 17.3057 127.613 18.161 127.613 19.2076C127.613 20.2541 127.643 21.1094 127.703 21.7736C127.784 22.4377 127.914 22.961 128.096 23.3434C128.277 23.7258 128.518 23.9874 128.82 24.1283C129.142 24.2692 129.535 24.3396 129.997 24.3396ZM157.071 27.9019C157.071 28.5862 156.93 29.0893 156.648 29.4113C156.366 29.7333 155.904 29.9145 155.26 29.9547C154.877 29.995 154.485 30.0151 154.082 30.0151C153.7 30.0352 153.338 30.0453 152.995 30.0453C152.673 30.0654 152.392 30.0755 152.15 30.0755C151.909 30.0755 151.748 30.0755 151.667 30.0755C149.534 30.0755 147.753 29.8843 146.324 29.5019C144.915 29.0994 143.778 28.4755 142.912 27.6302C142.067 26.7648 141.463 25.6478 141.101 24.2793C140.759 22.8906 140.588 21.2 140.588 19.2076C140.588 17.2151 140.759 15.5346 141.101 14.166C141.463 12.7774 142.067 11.6604 142.912 10.8151C143.778 9.94969 144.915 9.32579 146.324 8.9434C147.753 8.54088 149.534 8.33963 151.667 8.33963C151.748 8.33963 151.909 8.33963 152.15 8.33963C152.392 8.33963 152.673 8.34969 152.995 8.36982C153.338 8.36982 153.7 8.37988 154.082 8.40001C154.485 8.40001 154.877 8.42013 155.26 8.46038C155.904 8.50063 156.366 8.68177 156.648 9.00378C156.93 9.32579 157.071 9.82894 157.071 10.5132V12.6264C157.071 13.2704 156.93 13.7132 156.648 13.9547C156.387 14.1761 155.924 14.2667 155.26 14.2264C154.575 14.166 153.901 14.1258 153.237 14.1057C152.573 14.0855 152.1 14.0755 151.818 14.0755C151.114 14.0755 150.52 14.1359 150.037 14.2566C149.554 14.3572 149.161 14.5887 148.86 14.9509C148.558 15.3132 148.336 15.8365 148.195 16.5208C148.054 17.1849 147.984 18.0805 147.984 19.2076C147.984 20.3145 148.054 21.2101 148.195 21.8943C148.336 22.5585 148.558 23.0717 148.86 23.434C149.161 23.7962 149.554 24.0377 150.037 24.1585C150.52 24.2793 151.114 24.3396 151.818 24.3396C152.1 24.3396 152.573 24.3296 153.237 24.3094C153.901 24.2893 154.575 24.2491 155.26 24.1887C155.924 24.1484 156.387 24.2491 156.648 24.4906C156.93 24.712 157.071 25.1447 157.071 25.7887V27.9019ZM158.462 10.4528C158.462 9.90944 158.623 9.47673 158.945 9.15472C159.287 8.81258 159.73 8.64151 160.273 8.64151H171.141C171.685 8.64151 172.117 8.81258 172.439 9.15472C172.781 9.47673 172.952 9.90944 172.952 10.4528V12.566C172.952 13.1094 172.781 13.5522 172.439 13.8943C172.117 14.2164 171.685 14.3774 171.141 14.3774H166.613C166.271 14.3774 165.999 14.478 165.798 14.6793C165.596 14.8604 165.496 15.122 165.496 15.4642V15.5547C165.496 15.8969 165.596 16.1686 165.798 16.3698C165.999 16.5509 166.271 16.6415 166.613 16.6415H169.42C169.964 16.6415 170.396 16.8126 170.718 17.1547C171.061 17.4767 171.232 17.9094 171.232 18.4528V19.9623C171.232 20.5057 171.061 20.9484 170.718 21.2906C170.396 21.6126 169.964 21.7736 169.42 21.7736H166.613C166.271 21.7736 165.999 21.8742 165.798 22.0755C165.596 22.2566 165.496 22.5182 165.496 22.8604V22.9509C165.496 23.2931 165.596 23.5648 165.798 23.766C165.999 23.9472 166.271 24.0377 166.613 24.0377H171.141C171.685 24.0377 172.117 24.2088 172.439 24.5509C172.781 24.873 172.952 25.3057 172.952 25.8491V27.9623C172.952 28.5057 172.781 28.9484 172.439 29.2906C172.117 29.6126 171.685 29.7736 171.141 29.7736H160.273C159.73 29.7736 159.287 29.6126 158.945 29.2906C158.623 28.9484 158.462 28.5057 158.462 27.9623V10.4528Z" fill="#FF2B00"/>
<g clip-path="url(#clip0_118_22)">
<path d="M77.5529 26.6406C77.6393 26.7589 77.7276 26.8759 77.8187 26.9902C77.83 27.0048 77.842 27.0195 77.8533 27.0341C77.9144 27.1105 77.9775 27.1863 78.0407 27.2614C78.0812 27.3099 78.1224 27.3577 78.1643 27.4049C78.1975 27.4428 78.2314 27.4807 78.2653 27.5179C78.3351 27.595 78.4062 27.6714 78.4786 27.7472C78.4973 27.7665 78.5165 27.7857 78.5351 27.805C78.6202 27.8921 78.7059 27.9778 78.7943 28.0616C79.4244 28.6617 80.1302 29.1827 80.8938 29.6107L82.1399 28.0635C82.2602 27.914 82.4623 27.8582 82.6424 27.9233L86.4619 29.3083C87.6661 28.5826 88.6982 27.6568 89.5303 26.5562C91.138 24.4295 91.6192 22.1652 91.7235 20.5429L82.6078 26.8945C82.4589 26.9982 82.2735 27.0288 82.0994 26.9776L77.3993 25.6105L76.7932 25.4344C77.0198 25.8557 77.2744 26.2578 77.5535 26.6413L77.5529 26.6406Z" fill="#FF2B00"/>
<path d="M82.6147 15.436C82.6147 15.436 82.6114 15.438 82.6101 15.4387L83.2348 16.8775C83.5771 16.8317 83.9226 16.827 84.2696 16.8656C84.4769 16.5898 84.7182 16.3459 84.988 16.1358L84.0675 14.2145C82.4579 11.0802 79.7842 5.00508 81.6677 2.59523C81.9714 2.20711 82.9969 1.19957 84.5254 1.19957C85.6699 1.19957 86.4741 1.68008 86.9512 2.17654C87.1938 2.42842 87.5746 2.48624 87.8837 2.32275L87.9003 2.31411C88.432 2.03298 88.5802 1.46607 87.9608 0.956989C87.2138 0.342896 85.8972 -0.122325 84.354 0.0285393C84.0895 0.0544588 82.0053 0.289728 80.7113 1.94592C79.1162 3.98691 79.5602 6.87461 80.6156 10.1903C81.1619 11.9063 81.7075 13.2422 82.6154 15.436H82.6147Z" fill="#FF2B00"/>
<path d="M87.8809 14.0265C87.1199 14.0265 86.3775 14.1069 85.6624 14.2605C85.366 14.3243 85.0749 14.4013 84.7885 14.4897L85.4345 15.8376C85.8572 15.595 86.327 15.4302 86.8129 15.3584C86.9584 15.3371 87.0933 15.4375 87.1146 15.5823C87.1359 15.7279 87.0355 15.8628 86.8906 15.8841C86.3822 15.9592 85.8924 16.1506 85.4737 16.4384C85.1381 16.669 84.8496 16.9567 84.6157 17.2944C84.5559 17.3814 84.4522 17.4266 84.3472 17.4113C83.8693 17.3409 83.3915 17.3622 82.9263 17.4745C82.5548 17.5642 82.2005 17.7097 81.8715 17.9085C81.8283 17.9344 81.7812 17.947 81.734 17.947C81.6442 17.947 81.5565 17.9011 81.506 17.8187C81.4302 17.6931 81.4701 17.5296 81.5957 17.4539C81.9413 17.2445 82.3128 17.0877 82.701 16.984L82.1527 15.7206C79.261 17.5988 77.3469 20.8553 77.3469 24.5598C77.3469 24.722 77.3509 24.8828 77.3582 25.043L82.247 26.4652C82.2663 26.4705 82.2869 26.4672 82.3029 26.4559L91.6784 19.9235C91.7967 19.8411 91.9482 19.8331 92.0745 19.9023C92.2008 19.9714 92.2752 20.103 92.2699 20.2465C92.2054 21.9579 91.7509 24.4973 89.9531 26.8753C89.0645 28.0503 87.96 29.0352 86.6686 29.8022C86.5716 29.86 86.4546 29.8706 86.3483 29.8321L82.5155 28.4424L81.2249 30.0448C81.1511 30.1365 81.0421 30.1857 80.9311 30.1857C80.87 30.1857 80.8088 30.171 80.7523 30.1398C79.9043 29.6779 79.1214 29.1083 78.4262 28.4457C78.2382 28.267 78.0574 28.0815 77.8833 27.8901C79.2769 32.0758 83.2253 35.0938 87.8795 35.0938C93.6975 35.0938 98.4135 30.3777 98.4135 24.5598C98.4135 18.7419 93.6975 14.0258 87.8795 14.0258L87.8809 14.0265ZM86.7344 31.2896C86.7105 31.2504 86.7404 31.1826 86.7723 31.1839C87.2302 31.2065 87.9885 31.16 88.8997 30.7041L89.9877 33.3027C88.9788 33.4728 87.7679 32.9969 86.7351 31.2902L86.7344 31.2896ZM91.3614 32.5776C91.1188 32.8202 90.8271 33.0209 90.5014 33.1544L89.3656 30.4409C89.559 30.3193 89.7577 30.179 89.9604 30.0169C90.191 29.8321 90.4084 29.6327 90.6131 29.4254L92.2008 31.4504C91.9622 31.8797 91.6817 32.2572 91.3614 32.5776ZM92.4607 30.9207L90.9793 29.0306C91.9775 27.8875 92.6208 26.5862 92.9418 25.8618C92.9624 25.8159 93.001 25.8252 93.007 25.877C93.2449 27.9014 93.0276 29.6101 92.46 30.9207H92.4607Z" fill="#FF2B00"/>
</g>
<defs>
<clipPath id="clip0_118_22">
<rect width="21.6222" height="35.0943" fill="white" transform="translate(76.7927)"/>
</clipPath>
</defs>
</svg>
